<svg width="135" height="79" viewBox="0 0 135 79" fill="none" xmlns="http://www.w3.org/2000/svg">
<path d="M51.6446 32.4679V28.0969H55.7711C56.7963 28.0969 57.5738 28.2824 58.1035 28.6532C58.6332 29.0064 58.898 29.5451 58.898 30.2692C58.898 30.9932 58.6332 31.5407 58.1035 31.9116C57.5738 32.2824 56.7963 32.4679 55.7711 32.4679H51.6446Z" fill="#23382B"/>
<path d="M58.9493 39.6203C58.4025 39.9912 57.5823 40.1766 56.4888 40.1766H51.6446V35.5938H56.4888C58.693 35.5938 59.7951 36.362 59.7951 37.8984C59.7951 38.6755 59.5131 39.2495 58.9493 39.6203Z" fill="#23382B"/>
<path d="M36.1262 55.209C35.7693 55.416 35.3634 55.5195 34.9085 55.5195C34.4535 55.5195 34.0432 55.416 33.6774 55.209C33.3206 54.9929 33.0351 54.6959 32.821 54.3178C32.6158 53.9308 32.5133 53.4897 32.5133 52.9947C32.5133 52.4996 32.6158 52.063 32.821 51.685C33.0351 51.2979 33.3206 51.0009 33.6774 50.7939C34.0432 50.5868 34.4535 50.4833 34.9085 50.4833C35.3634 50.4833 35.7693 50.5868 36.1262 50.7939C36.4919 51.0009 36.7774 51.2979 36.9826 51.685C37.1877 52.063 37.2903 52.4996 37.2903 52.9947C37.2903 53.4897 37.1877 53.9308 36.9826 54.3178C36.7774 54.6959 36.4919 54.9929 36.1262 55.209Z" fill="#23382B"/>
<path d="M64.6162 55.5195C65.0623 55.5195 65.4682 55.416 65.8339 55.209C66.1997 54.9929 66.4852 54.6959 66.6903 54.3178C66.8955 53.9308 66.9981 53.4897 66.9981 52.9947C66.9981 52.4996 66.8955 52.063 66.6903 51.685C66.4852 51.2979 66.1997 51.0009 65.8339 50.7939C65.4682 50.5868 65.0623 50.4833 64.6162 50.4833C64.1613 50.4833 63.7509 50.5868 63.3852 50.7939C63.0283 51.0009 62.7429 51.2979 62.5288 51.685C62.3236 52.063 62.221 52.4996 62.221 52.9947C62.221 53.4897 62.3236 53.9308 62.5288 54.3178C62.7429 54.6959 63.0283 54.9929 63.3852 55.209C63.7509 55.416 64.1613 55.5195 64.6162 55.5195Z" fill="#23382B"/>
<path d="M75.2628 55.3305C74.906 55.5465 74.4823 55.6545 73.9916 55.6545C73.501 55.6545 73.1174 55.551 72.8409 55.344C72.5643 55.1369 72.426 54.8534 72.426 54.4934C72.426 53.7553 72.9702 53.3862 74.0585 53.3862H76.0389V54.3853C75.8784 54.7904 75.6197 55.1054 75.2628 55.3305Z" fill="#23382B"/>
<path d="M95.027 55.5195C95.482 55.5195 95.8879 55.416 96.2447 55.209C96.6105 54.9929 96.8959 54.6959 97.1011 54.3178C97.3063 53.9308 97.4089 53.4897 97.4089 52.9947C97.4089 52.4996 97.3063 52.063 97.1011 51.685C96.8959 51.2979 96.6105 51.0009 96.2447 50.7939C95.8879 50.5868 95.482 50.4833 95.027 50.4833C94.5721 50.4833 94.1617 50.5868 93.796 50.7939C93.4391 51.0009 93.1537 51.2979 92.9396 51.685C92.7344 52.063 92.6318 52.4996 92.6318 52.9947C92.6318 53.4897 92.7344 53.9308 92.9396 54.3178C93.1537 54.6959 93.4391 54.9929 93.796 55.209C94.1617 55.416 94.5721 55.5195 95.027 55.5195Z" fill="#23382B"/>
<path fill-rule="evenodd" clip-rule="evenodd" d="M65.5 66.1488C58.6192 74.0411 48.6689 79 37.6018 79C16.8349 79 0 61.5391 0 40C0 18.4609 16.8349 1 37.6018 1C48.6689 1 58.6192 5.95886 65.5 13.8512C72.3808 5.95886 82.3311 1 93.3981 1C114.165 1 131 18.4609 131 40C131 61.5391 114.165 79 93.3981 79C82.3311 79 72.3808 74.0411 65.5 66.1488ZM76.3433 43.7264C74.9251 43.7264 73.5496 43.5321 72.2168 43.1436C70.9011 42.7374 69.8417 42.2164 69.0387 41.5806L70.4483 38.3488C71.2172 38.9316 72.1314 39.3996 73.1908 39.7528C74.2502 40.106 75.3096 40.2826 76.369 40.2826C77.548 40.2826 78.4194 40.106 78.9833 39.7528C79.5471 39.3819 79.8291 38.8963 79.8291 38.2958C79.8291 37.8543 79.6582 37.4923 79.3165 37.2097C78.9918 36.9095 78.5646 36.671 78.0349 36.4944C77.5223 36.3178 76.8218 36.1236 75.9332 35.9117C74.5663 35.5761 73.4471 35.2406 72.5757 34.905C71.7042 34.5695 70.9524 34.0308 70.3202 33.2891C69.705 32.5473 69.3975 31.5584 69.3975 30.3221C69.3975 29.2449 69.6794 28.2735 70.2433 27.4082C70.8072 26.5252 71.653 25.8276 72.7807 25.3154C73.9255 24.8033 75.3181 24.5472 76.9585 24.5472C78.1033 24.5472 79.2225 24.6885 80.316 24.971C81.4096 25.2536 82.3665 25.6598 83.1867 26.1896L81.9051 29.448C80.2477 28.4766 78.5903 27.991 76.9328 27.991C75.7709 27.991 74.908 28.1852 74.3442 28.5738C73.7974 28.9623 73.524 29.4744 73.524 30.1102C73.524 30.746 73.8401 31.2228 74.4723 31.5407C75.1216 31.8409 76.1041 32.1412 77.4198 32.4414C78.7868 32.7769 79.906 33.1125 80.7774 33.448C81.6488 33.7836 82.3921 34.3134 83.0072 35.0375C83.6395 35.7615 83.9556 36.7417 83.9556 37.9779C83.9556 39.0375 83.6651 40.0089 83.0841 40.8919C82.5203 41.7572 81.6659 42.446 80.5211 42.9581C79.3763 43.4703 77.9837 43.7264 76.3433 43.7264ZM39.9413 43.4085V24.8651H35.8404V36.1236L26.921 24.8651H23.4866V43.4085H27.5874V32.15L36.5325 43.4085H39.9413ZM63.1014 35.4613C62.5204 34.6666 61.7174 34.1015 60.6921 33.7659C61.444 33.3597 62.0249 32.8034 62.435 32.097C62.8622 31.3906 63.0758 30.587 63.0758 29.6864C63.0758 28.2029 62.4863 27.0285 61.3073 26.1631C60.1454 25.2978 58.4708 24.8651 56.2837 24.8651H47.5181V43.4085H56.7963C59.1372 43.4085 60.9143 42.9758 62.1274 42.1104C63.3577 41.2274 63.9728 39.9735 63.9728 38.3488C63.9728 37.2009 63.6824 36.2384 63.1014 35.4613ZM93.7386 42.5078C95.2252 43.3202 96.8826 43.7264 98.7109 43.7264C100.266 43.7264 101.675 43.4438 102.94 42.8787C104.204 42.3135 105.264 41.4923 106.118 40.4151L103.453 37.872C102.239 39.3378 100.736 40.0707 98.9416 40.0707C97.8309 40.0707 96.8399 39.8234 95.9684 39.3289C95.097 38.8168 94.4135 38.1104 93.918 37.2097C93.4396 36.309 93.2003 35.2847 93.2003 34.1368C93.2003 32.9889 93.4396 31.9646 93.918 31.0639C94.4135 30.1632 95.097 29.4656 95.9684 28.9711C96.8399 28.459 97.8309 28.2029 98.9416 28.2029C100.736 28.2029 102.239 28.927 103.453 30.3751L106.118 27.832C105.264 26.7724 104.204 25.96 102.94 25.3949C101.693 24.8298 100.291 24.5472 98.7365 24.5472C96.8911 24.5472 95.2252 24.9622 93.7386 25.7923C92.2691 26.6046 91.1072 27.7437 90.2528 29.2095C89.4156 30.6577 88.9969 32.3001 88.9969 34.1368C88.9969 35.9735 89.4156 37.6247 90.2528 39.0905C91.1072 40.5387 92.2691 41.6778 93.7386 42.5078ZM24.1211 48.296V51.5905H28.8179V52.7516H24.1211V56.5726H22.783V47.1214H29.3932V48.296H24.1211ZM33.0084 56.1811C33.5704 56.4961 34.2037 56.6536 34.9085 56.6536C35.6132 56.6536 36.2421 56.4961 36.7952 56.1811C37.3572 55.866 37.7944 55.434 38.1066 54.8849C38.4277 54.3268 38.5883 53.6967 38.5883 52.9947C38.5883 52.2926 38.4277 51.667 38.1066 51.1179C37.7944 50.5598 37.3572 50.1278 36.7952 49.8217C36.2421 49.5067 35.6132 49.3492 34.9085 49.3492C34.2037 49.3492 33.5704 49.5067 33.0084 49.8217C32.4464 50.1278 32.0048 50.5598 31.6836 51.1179C31.3714 51.667 31.2153 52.2926 31.2153 52.9947C31.2153 53.6967 31.3714 54.3268 31.6836 54.8849C32.0048 55.434 32.4464 55.866 33.0084 56.1811ZM47.9788 56.5726H46.7611V55.4925C46.5024 55.8615 46.1589 56.1496 45.7307 56.3566C45.3114 56.5546 44.852 56.6536 44.3525 56.6536C43.4068 56.6536 42.662 56.3926 42.1178 55.8705C41.5736 55.3395 41.3015 54.5609 41.3015 53.5347V49.4167H42.5861V53.3862C42.5861 54.0793 42.7512 54.6059 43.0812 54.9659C43.4113 55.317 43.8841 55.4925 44.4996 55.4925C45.1776 55.4925 45.7129 55.2855 46.1054 54.8714C46.4979 54.4574 46.6942 53.8723 46.6942 53.1162V49.4167H47.9788V56.5726ZM57.3557 50.1458C56.8294 49.6147 56.1157 49.3492 55.2147 49.3492C54.6527 49.3492 54.1487 49.4482 53.7027 49.6462C53.2655 49.8442 52.9176 50.1278 52.6589 50.4968V49.4167H51.4278V56.5726H52.7124V52.8866C52.7124 52.1215 52.9132 51.5365 53.3146 51.1314C53.716 50.7173 54.2647 50.5103 54.9605 50.5103C55.576 50.5103 56.0488 50.6858 56.3789 51.0369C56.709 51.3879 56.874 51.91 56.874 52.6031V56.5726H58.1586V52.4546C58.1586 51.4374 57.891 50.6678 57.3557 50.1458ZM68.2693 46.5543V56.5726H67.0382V55.4385C66.7528 55.8345 66.3915 56.1361 65.9544 56.3431C65.5172 56.5501 65.0355 56.6536 64.5092 56.6536C63.8223 56.6536 63.2068 56.5006 62.6626 56.1946C62.1184 55.8885 61.6902 55.461 61.378 54.9119C61.0747 54.3538 60.923 53.7148 60.923 52.9947C60.923 52.2746 61.0747 51.64 61.378 51.0909C61.6902 50.5418 62.1184 50.1143 62.6626 49.8082C63.2068 49.5022 63.8223 49.3492 64.5092 49.3492C65.0177 49.3492 65.486 49.4482 65.9142 49.6462C66.3424 49.8352 66.6992 50.1188 66.9847 50.4968V46.5543H68.2693ZM76.5341 50.0783C76.0167 49.5922 75.2673 49.3492 74.286 49.3492C73.7151 49.3492 73.1754 49.4302 72.6669 49.5922C72.1584 49.7452 71.7213 49.9702 71.3555 50.2673L71.8908 51.2394C72.1673 51.0054 72.5063 50.8209 72.9078 50.6858C73.3092 50.5418 73.7196 50.4698 74.1388 50.4698C74.7633 50.4698 75.2361 50.6183 75.5572 50.9154C75.8784 51.2124 76.0389 51.64 76.0389 52.198V52.4546H74.005C73.0148 52.4546 72.2922 52.6481 71.8373 53.0352C71.3823 53.4132 71.1548 53.9173 71.1548 54.5474C71.1548 55.1774 71.3912 55.686 71.864 56.0731C72.3457 56.4601 72.9836 56.6536 73.7775 56.6536C74.3217 56.6536 74.79 56.5681 75.1826 56.3971C75.584 56.2171 75.8918 55.9606 76.1059 55.6275V56.5726H77.3235V52.2521C77.3235 51.2889 77.0604 50.5643 76.5341 50.0783ZM84.692 56.1541C84.5046 56.3161 84.2727 56.4421 83.9961 56.5321C83.7196 56.6131 83.4341 56.6536 83.1398 56.6536C82.4261 56.6536 81.873 56.4601 81.4805 56.0731C81.088 55.686 80.8917 55.1324 80.8917 54.4123V50.4833H79.6874V49.4167H80.8917V47.8505H82.1763V49.4167H84.2103V50.4833H82.1763V54.3583C82.1763 54.7454 82.27 55.0424 82.4573 55.2495C82.6536 55.4565 82.9301 55.56 83.2869 55.56C83.6795 55.56 84.014 55.4475 84.2905 55.2225L84.692 56.1541ZM88.5332 49.4167H87.2486V56.5726H88.5332V49.4167ZM87.262 47.7965C87.4315 47.9585 87.6411 48.0395 87.8909 48.0395C88.1407 48.0395 88.3459 47.9585 88.5064 47.7965C88.6759 47.6254 88.7607 47.4184 88.7607 47.1754C88.7607 46.9413 88.6759 46.7478 88.5064 46.5948C88.3459 46.4328 88.1407 46.3518 87.8909 46.3518C87.6411 46.3518 87.4315 46.4373 87.262 46.6083C87.1014 46.7703 87.0211 46.9683 87.0211 47.2024C87.0211 47.4364 87.1014 47.6344 87.262 47.7965ZM95.027 56.6536C94.3223 56.6536 93.6889 56.4961 93.1269 56.1811C92.5649 55.866 92.1233 55.434 91.8022 54.8849C91.49 54.3268 91.3338 53.6967 91.3338 52.9947C91.3338 52.2926 91.49 51.667 91.8022 51.1179C92.1233 50.5598 92.5649 50.1278 93.1269 49.8217C93.6889 49.5067 94.3223 49.3492 95.027 49.3492C95.7318 49.3492 96.3607 49.5067 96.9138 49.8217C97.4758 50.1278 97.9129 50.5598 98.2251 51.1179C98.5463 51.667 98.7069 52.2926 98.7069 52.9947C98.7069 53.6967 98.5463 54.3268 98.2251 54.8849C97.9129 55.434 97.4758 55.866 96.9138 56.1811C96.3607 56.4961 95.7318 56.6536 95.027 56.6536ZM107.415 50.1458C106.889 49.6147 106.175 49.3492 105.274 49.3492C104.712 49.3492 104.208 49.4482 103.762 49.6462C103.325 49.8442 102.977 50.1278 102.718 50.4968V49.4167H101.487V56.5726H102.772V52.8866C102.772 52.1215 102.972 51.5365 103.374 51.1314C103.775 50.7173 104.324 50.5103 105.02 50.5103C105.635 50.5103 106.108 50.6858 106.438 51.0369C106.768 51.3879 106.933 51.91 106.933 52.6031V56.5726H108.218V52.4546C108.218 51.4374 107.95 50.6678 107.415 50.1458Z" fill="#23382B"/>
</svg>
